<?xml version="1.0" encoding="utf-8"?>
<!-- Generator: Adobe Illustrator 24.3.0, SVG Export Plug-In . SVG Version: 6.00 Build 0)  -->
<svg version="1.1"
	 id="svg2" inkscape:export-filename="/home/byron/art/cards/final/PNGs/2_of_diamonds.png" inkscape:export-xdpi="215.44792" inkscape:export-ydpi="215.44792" inkscape:version="0.48.0 r9654" sodipodi:docname="2_of_diamonds.svg" xmlns:cc="http://creativecommons.org/ns#" xmlns:dc="http://purl.org/dc/elements/1.1/" xmlns:inkscape="http://www.inkscape.org/namespaces/inkscape" xmlns:rdf="http://www.w3.org/1999/02/22-rdf-syntax-ns#" xmlns:sodipodi="http://sodipodi.sourceforge.net/DTD/sodipodi-0.dtd" xmlns:svg="http://www.w3.org/2000/svg"
	 xmlns="http://www.w3.org/2000/svg" xmlns:xlink="http://www.w3.org/1999/xlink" x="0px" y="0px" viewBox="0 0 167.1 242.7"
	 style="enable-background:new 0 0 167.1 242.7;" xml:space="preserve">
<style type="text/css">
	.st0{opacity:0.5;}
	.st1{fill:none;stroke:#FFFFFF;stroke-width:3;}
	.st2{opacity:0.25;}
	.st3{fill-rule:evenodd;clip-rule:evenodd;fill:#FFFFFF;}
</style>
<sodipodi:namedview  bordercolor="#666666" borderopacity="1" gridtolerance="10" guidetolerance="10" id="namedview39" inkscape:current-layer="svg2" inkscape:cx="72.124594" inkscape:cy="147.27218" inkscape:pageopacity="0" inkscape:pageshadow="2" inkscape:window-height="977" inkscape:window-maximized="1" inkscape:window-width="1680" inkscape:window-x="0" inkscape:window-y="25" inkscape:zoom="1.7208768" objecttolerance="10" pagecolor="#ffffff" showgrid="false">
	</sodipodi:namedview>
<g id="Layer_x0020_1" class="st0">
	<path id="path5" class="st1" d="M165.1,233.6c0,3.7-3,6.8-6.7,6.8H8.6c-3.7,0-6.7-3-6.7-6.8V8.8c0-3.7,3-6.8,6.7-6.8h149.8
		c3.7,0,6.7,3,6.7,6.8V233.6z"/>
	<g id="g7">
		<g id="g9">
		</g>
	</g>
	<g id="g15">
	</g>
	<g id="g19">
	</g>
	<g id="g23">
		<g id="g25">
		</g>
	</g>
	<g id="g31">
		<g id="g33">
		</g>
	</g>
</g>
<g id="Layer_2_2_" class="st2">
	<path class="st3" d="M40.4,102.9L56.5,75l16.1,27.9H40.4L40.4,102.9z M78.2,102.9L94.3,75l16.1,27.9H78.2L78.2,102.9z M21.5,135.6
		l16.1-27.9l16.1,27.9H21.5L21.5,135.6z M97.1,135.6l16.1-27.9l16.1,27.9H97.1L97.1,135.6z M59.3,135.6l16.1-27.9l16.1,27.9H59.3
		L59.3,135.6z M78.2,168.4l16.1-27.9l16.1,27.9H78.2L78.2,168.4z M148.3,106.1L132.2,134l-16.1-27.9L148.3,106.1L148.3,106.1z
		 M91.5,73.3l-16.1,27.9L59.3,73.3H91.5L91.5,73.3z M110.5,106.1L94.4,134l-16.1-27.9C78.2,106.1,110.5,106.1,110.5,106.1
		L110.5,106.1z M72.6,106.1L56.5,134l-16.1-27.9C40.4,106.1,72.6,106.1,72.6,106.1L72.6,106.1z M91.5,138.9l-16.1,27.9l-16.1-27.9
		H91.5L91.5,138.9z M129.4,138.9l-16.1,27.9l-16.1-27.9C97.1,138.9,129.4,138.9,129.4,138.9L129.4,138.9z"/>
</g>
</svg>
