<?xml version="1.0" encoding="utf-8"?>
<!-- Generator: Adobe Illustrator 24.3.0, SVG Export Plug-In . SVG Version: 6.00 Build 0)  -->
<svg version="1.1"
	 id="svg2" inkscape:export-filename="/home/byron/art/cards/final/PNGs/2_of_diamonds.png" inkscape:export-xdpi="215.44792" inkscape:export-ydpi="215.44792" inkscape:version="0.48.0 r9654" sodipodi:docname="2_of_diamonds.svg" xmlns:cc="http://creativecommons.org/ns#" xmlns:dc="http://purl.org/dc/elements/1.1/" xmlns:inkscape="http://www.inkscape.org/namespaces/inkscape" xmlns:rdf="http://www.w3.org/1999/02/22-rdf-syntax-ns#" xmlns:sodipodi="http://sodipodi.sourceforge.net/DTD/sodipodi-0.dtd" xmlns:svg="http://www.w3.org/2000/svg"
	 xmlns="http://www.w3.org/2000/svg" xmlns:xlink="http://www.w3.org/1999/xlink" x="0px" y="0px" viewBox="0 0 167.1 242.7"
	 style="enable-background:new 0 0 167.1 242.7;" xml:space="preserve">
<style type="text/css">
	.st0{opacity:0.5;}
	.st1{fill:none;stroke:#FFFFFF;stroke-width:3;}
	.st2{opacity:0.24;}
	.st3{fill:#FFFFFF;}
</style>
<sodipodi:namedview  bordercolor="#666666" borderopacity="1" gridtolerance="10" guidetolerance="10" id="namedview39" inkscape:current-layer="svg2" inkscape:cx="72.124594" inkscape:cy="147.27218" inkscape:pageopacity="0" inkscape:pageshadow="2" inkscape:window-height="977" inkscape:window-maximized="1" inkscape:window-width="1680" inkscape:window-x="0" inkscape:window-y="25" inkscape:zoom="1.7208768" objecttolerance="10" pagecolor="#ffffff" showgrid="false">
	</sodipodi:namedview>
<g id="Layer_x0020_1" class="st0">
	<path id="path5" class="st1" d="M165.1,233.6c0,3.7-3,6.8-6.7,6.8H8.6c-3.7,0-6.7-3-6.7-6.8V8.8c0-3.7,3-6.8,6.7-6.8h149.8
		c3.7,0,6.7,3,6.7,6.8V233.6z"/>
	<g id="g7">
		<g id="g9">
		</g>
	</g>
	<g id="g15">
	</g>
	<g id="g19">
	</g>
	<g id="g23">
		<g id="g25">
		</g>
	</g>
	<g id="g31">
		<g id="g33">
		</g>
	</g>
</g>
<g id="layer1-1-4-8" transform="matrix(2.5125778,0,0,2.5125778,-36.788386,-1.5311156)" class="st2">
	<path id="cl-9-8" inkscape:connector-curvature="0" class="st3" d="M52.4,47c0,0,5-4,5-9.5c0-3.2-2.9-8.6-9.5-8.6s-9.5,5.4-9.5,8.6
		c0,5.5,5,9.5,5,9.5C37.8,42.7,28,45.7,28,54.3c0,4.3,3.5,9,9,9c6.6,0,9.5-7.2,9.5-7.2s0.8,8.2-4.1,12.7h10.9
		c-4.9-4.4-4.1-12.7-4.1-12.7s2.9,7.2,9.5,7.2c5.5,0,9-4.7,9-9C67.8,45.7,57.9,42.7,52.4,47z"/>
</g>
</svg>
