<?xml version="1.0" encoding="utf-8"?>
<!-- Generator: Adobe Illustrator 24.3.0, SVG Export Plug-In . SVG Version: 6.00 Build 0)  -->
<svg version="1.1" id="Layer_1" xmlns="http://www.w3.org/2000/svg" xmlns:xlink="http://www.w3.org/1999/xlink" x="0px" y="0px"
	 viewBox="0 0 167.1 242.7" style="enable-background:new 0 0 167.1 242.7;" xml:space="preserve">
<style type="text/css">
	.st0{fill:#CFF6FF;}
	.st1{display:none;fill:url(#SVGID_1_);}
	.st2{fill:url(#Layer_3_1_);}
	.st3{fill:#FFFFFF;}
	.st4{fill-rule:evenodd;clip-rule:evenodd;fill:#00AEEB;}
	.st5{fill:url(#SVGID_2_);}
</style>
<g id="Layer_x0020_1_1_">
	<path id="path5" class="st0" d="M164.8,201.7c0,2.6-3,4.6-6.7,4.6H8.8c-3.7,0-6.7-2.1-6.7-4.6V47.8c0-2.6,3-4.6,6.7-4.6h149.3
		c3.7,0,6.7,2.1,6.7,4.6L164.8,201.7L164.8,201.7z"/>
	<g id="g7_1_">
		<g id="g9_1_">
		</g>
	</g>
	<g id="g15_1_">
	</g>
	<g id="g19_1_">
	</g>
	<g id="g23_1_">
		<g id="g25_1_">
		</g>
	</g>
	<g id="g31_1_">
		<g id="g33_1_">
		</g>
	</g>
</g>
<g id="svg2" inkscape:export-xdpi="215.44792" inkscape:export-ydpi="215.44792" sodipodi:docname="2_of_diamonds.svg" xmlns:cc="http://creativecommons.org/ns#" xmlns:dc="http://purl.org/dc/elements/1.1/" xmlns:inkscape="http://www.inkscape.org/namespaces/inkscape" xmlns:rdf="http://www.w3.org/1999/02/22-rdf-syntax-ns#" xmlns:sodipodi="http://sodipodi.sourceforge.net/DTD/sodipodi-0.dtd" xmlns:svg="http://www.w3.org/2000/svg">
	
		<sodipodi:namedview  bordercolor="#666666" borderopacity="1" gridtolerance="10" guidetolerance="10" id="namedview39" inkscape:current-layer="svg2" inkscape:cx="72.124594" inkscape:cy="147.27218" inkscape:pageopacity="0" inkscape:pageshadow="2" inkscape:window-height="977" inkscape:window-maximized="1" inkscape:window-width="1680" inkscape:window-x="0" inkscape:window-y="25" inkscape:zoom="1.7208768" objecttolerance="10" pagecolor="#ffffff" showgrid="false">
		</sodipodi:namedview>
	<g id="Layer_x0020_1">
		<g id="g7">
			<g id="g9">
			</g>
		</g>
		<g id="g15">
		</g>
		<g id="g19">
		</g>
		<g id="g23">
			<g id="g25">
			</g>
		</g>
		<g id="g31">
			<g id="g33">
			</g>
		</g>
	</g>
</g>
<linearGradient id="SVGID_1_" gradientUnits="userSpaceOnUse" x1="83.45" y1="1.3" x2="83.45" y2="244" gradientTransform="matrix(1 0 0 -1 0 244)">
	<stop  offset="0" style="stop-color:#67B9C1"/>
	<stop  offset="1" style="stop-color:#A9EFFF"/>
</linearGradient>
<rect class="st1" width="166.9" height="242.7"/>
<linearGradient id="Layer_3_1_" gradientUnits="userSpaceOnUse" x1="83.5" y1="42" x2="83.5" y2="202.4" gradientTransform="matrix(1 0 0 -1 0 244)">
	<stop  offset="0" style="stop-color:#7FD6FF"/>
	<stop  offset="1" style="stop-color:#A9EFFF"/>
</linearGradient>
<path id="Layer_3" class="st2" d="M50.9,73.8H18.7l16.1,28L50.9,73.8z M19.1,71.1h32.2L35.2,43.2L19.1,71.1z M0.2,106.4v0.6
	L16,134.3l16.1-27.9C32.2,106.4,3.7,106.4,0.2,106.4z M13.2,135.9l-13-22.5v22.5H13.2z M38,41.6l16.1,27.9l16.2-27.9H38z M56.9,71.1
	h32.3L73,43.2L56.9,71.1z M53.7,141.2l-16.1,27.9h32.2L53.7,141.2z M0.2,169.1H32l-16.1-27.9l-15.7,27
	C0.2,168.2,0.2,169.1,0.2,169.1z M18.7,139.6l16.1,27.9l16.1-27.9H18.7z M72.9,173.9l-16.2,28H89L72.9,173.9z M110.7,174.1L94.6,202
	h32.2L110.7,174.1z M107.9,172.3H75.7l16.1,27.9L107.9,172.3z M145.7,172.5h-32.2l16.1,27.9L145.7,172.5z M148.5,174.1L132.4,202
	h32.3L148.5,174.1z M13.3,201.9L0.2,179.2v22.7H13.3z M75.8,41.6L92,69.5l16.1-27.9H75.8z M35,173.9l-16.1,28h32.2L35,173.9z
	 M32.2,172.3c0,0-28.9,0-32,0v0.5l15.9,27.4L32.2,172.3z M70.1,172.3H37.8l16.1,27.9L70.1,172.3z M132.6,71.3h32.3l-16.2-27.9
	L132.6,71.3z M132.3,135.1h32.2l-16.1-27.9L132.3,135.1z M94.8,71.3H127l-16.1-27.9L94.8,71.3z M31.5,43.2
	c-9.8,0.6-19.5,1.3-29.3,1.9c4.7,8.2,9.3,16.3,14,24.5C21.3,60.8,26.4,52,31.5,43.2z M166.8,103.4V76.2l-15.6,27.2
	C151.2,103.4,166.8,103.4,166.8,103.4z M166.8,172.5c-7.9,0-15.5,0-15.5,0l15.5,26.9V172.5z M132.3,73.8l16.1,28l16.1-28H132.3z
	 M166.8,105.6c-7.9,0-15.7,0-15.7,0l15.7,27.1V105.6z M166.8,68.3c-1.2-7.8-2.4-15.6-3.6-23.4c-3.9-1-7.8-2.1-11.7-3.1L166.8,68.3z
	 M166.8,141.2l-15.7,27.3h15.7V141.2z M113.3,103.4h32.3l-16.1-28L113.3,103.4z M113.7,41.8l16.1,27.9l16.1-27.9
	C145.9,41.8,113.7,41.8,113.7,41.8z M94.4,73.8l16.1,28l16.2-28H94.4z M129.4,140.6l-16.1,27.9h32.2L129.4,140.6z M164.4,138.9
	h-32.2l16.1,28L164.4,138.9z M13.1,73.8c0,0-6,0-12.8,0V96L13.1,73.8z M0.2,48.2v22.9h13.3L0.2,48.2z M0.2,103.4H32l-16.1-28
	L0.2,102.5V103.4z M13.1,139.6c0,0-6,0-12.8,0v22.2L13.1,139.6z"/>
<g id="Layer_2_1_">
	<path class="st3" d="M13.1,139.6c13.2,0,26.4,0,39.7,0c6.4,10.9,12.7,21.8,19.1,32.7c13.2,0,26.3,0,39.5-0.1
		c13-23.1,25.9-46.1,38.9-69.2c-13.1,0-26.1,0-39.2,0c-6.2-10.6-12.4-21.3-18.6-31.9c-13.4,0-26.9,0-40.3,0
		C39.1,94,26.1,116.8,13.1,139.6z"/>
</g>
<g id="Layer_2_2_">
	<path class="st4" d="M37.6,103.6l16.1-27.9l16.1,27.9H37.6L37.6,103.6z M75.4,103.6l16.1-27.9l16.1,27.9H75.4L75.4,103.6z
		 M18.7,136.3l16.1-27.9l16.1,27.9H18.7L18.7,136.3z M94.3,136.3l16.1-27.9l16.1,27.9H94.3L94.3,136.3z M56.5,136.3l16.1-27.9
		l16.1,27.9H56.5L56.5,136.3z M75.4,169.1l16.1-27.9l16.1,27.9H75.4L75.4,169.1z M145.5,106.8l-16.1,27.9l-16.1-27.9L145.5,106.8
		L145.5,106.8z M88.7,74l-16.1,27.9L56.5,74H88.7L88.7,74z M107.7,106.8l-16.1,27.9l-16.1-27.9C75.4,106.8,107.7,106.8,107.7,106.8
		L107.7,106.8z M69.8,106.8l-16.1,27.9l-16.1-27.9C37.6,106.8,69.8,106.8,69.8,106.8L69.8,106.8z M88.7,139.6l-16.1,27.9l-16.1-27.9
		H88.7L88.7,139.6z M126.6,139.6l-16.1,27.9l-16.1-27.9C94.3,139.6,126.6,139.6,126.6,139.6L126.6,139.6z"/>
</g>
<g>
	<linearGradient id="SVGID_2_" gradientUnits="userSpaceOnUse" x1="83.55" y1="208.4" x2="83.55" y2="41.8">
		<stop  offset="0" style="stop-color:#006CBF"/>
		<stop  offset="0.8951" style="stop-color:#38AEF8"/>
		<stop  offset="1" style="stop-color:#3FB6FF"/>
	</linearGradient>
	<path class="st5" d="M160.4,45.8c1.3,0,2.4,1.1,2.4,2.4V202c0,1.3-1.1,2.4-2.4,2.4H6.7c-1.3,0-2.4-1.1-2.4-2.4V48.2
		c0-1.3,1.1-2.4,2.4-2.4H160.4 M160.4,41.8H6.7c-3.5,0-6.4,2.9-6.4,6.4V202c0,3.5,2.9,6.4,6.4,6.4h153.8c3.5,0,6.4-2.9,6.4-6.4V48.2
		C166.8,44.7,164,41.8,160.4,41.8L160.4,41.8z"/>
</g>
</svg>
