<?xml version="1.0" encoding="utf-8"?>
<!-- Generator: Adobe Illustrator 24.3.0, SVG Export Plug-In . SVG Version: 6.00 Build 0)  -->
<svg version="1.1" id="Layer_1" xmlns="http://www.w3.org/2000/svg" xmlns:xlink="http://www.w3.org/1999/xlink" x="0px" y="0px"
	 viewBox="0 0 167.1 242.7" style="enable-background:new 0 0 167.1 242.7;" xml:space="preserve">
<style type="text/css">
	.st0{fill:#CFF6FF;}
	.st1{fill:#A9EFFF;}
	.st2{fill:#FFFFFF;}
	.st3{fill-rule:evenodd;clip-rule:evenodd;fill:#00AEEB;}
</style>
<g id="Layer_x0020_1_1_">
	<path id="path5" class="st0" d="M166.8,235.6c0,3.8-3.1,6.9-6.9,6.9H7.1c-3.8,0-6.9-3.1-6.9-6.9V7.1c0-3.8,3.1-6.9,6.9-6.9H160
		c3.8,0,6.9,3.1,6.9,6.9L166.8,235.6L166.8,235.6z"/>
	<g id="g7_1_">
		<g id="g9_1_">
		</g>
	</g>
	<g id="g15_1_">
	</g>
	<g id="g19_1_">
	</g>
	<g id="g23_1_">
		<g id="g25_1_">
		</g>
	</g>
	<g id="g31_1_">
		<g id="g33_1_">
		</g>
	</g>
</g>
<g id="svg2" inkscape:export-filename="/home/byron/art/cards/final/PNGs/2_of_diamonds.png" inkscape:export-xdpi="215.44792" inkscape:export-ydpi="215.44792" inkscape:version="0.48.0 r9654" sodipodi:docname="2_of_diamonds.svg" xmlns:cc="http://creativecommons.org/ns#" xmlns:dc="http://purl.org/dc/elements/1.1/" xmlns:inkscape="http://www.inkscape.org/namespaces/inkscape" xmlns:rdf="http://www.w3.org/1999/02/22-rdf-syntax-ns#" xmlns:sodipodi="http://sodipodi.sourceforge.net/DTD/sodipodi-0.dtd" xmlns:svg="http://www.w3.org/2000/svg">
	
		<sodipodi:namedview  bordercolor="#666666" borderopacity="1" gridtolerance="10" guidetolerance="10" id="namedview39" inkscape:current-layer="svg2" inkscape:cx="72.124594" inkscape:cy="147.27218" inkscape:pageopacity="0" inkscape:pageshadow="2" inkscape:window-height="977" inkscape:window-maximized="1" inkscape:window-width="1680" inkscape:window-x="0" inkscape:window-y="25" inkscape:zoom="1.7208768" objecttolerance="10" pagecolor="#ffffff" showgrid="false">
		</sodipodi:namedview>
	<g id="Layer_x0020_1">
		<g id="g7">
			<g id="g9">
			</g>
		</g>
		<g id="g15">
		</g>
		<g id="g19">
		</g>
		<g id="g23">
			<g id="g25">
			</g>
		</g>
		<g id="g31">
			<g id="g33">
			</g>
		</g>
	</g>
</g>
<g id="Layer_3">
	<g>
		<polygon class="st1" points="50.9,73.8 18.7,73.8 34.8,101.8 		"/>
		<polygon class="st1" points="19.1,71.1 51.3,71.1 35.2,43.2 		"/>
		<path class="st1" d="M0.2,106.4v0.6L16,134.3l16.1-27.9C32.2,106.4,3.7,106.4,0.2,106.4z"/>
		<polygon class="st1" points="13.2,135.9 0.2,113.4 0.2,135.9 		"/>
		<polygon class="st1" points="38,41.6 54.1,69.5 70.3,41.6 		"/>
		<polygon class="st1" points="56.9,71.1 89.2,71.1 73,43.2 		"/>
		<polygon class="st1" points="53.7,141.2 37.6,169.1 69.8,169.1 		"/>
		<polygon class="st1" points="0.2,169.1 32,169.1 15.9,141.2 0.2,168.2 		"/>
		<polygon class="st1" points="18.7,139.6 34.8,167.5 50.9,139.6 		"/>
		<polygon class="st1" points="72.9,173.9 56.7,201.9 89,201.9 		"/>
		<polygon class="st1" points="110.7,174.1 94.6,202 126.8,202 		"/>
		<polygon class="st1" points="107.9,172.3 75.7,172.3 91.8,200.2 		"/>
		<polygon class="st1" points="145.7,172.5 113.5,172.5 129.6,200.4 		"/>
		<polygon class="st1" points="148.5,174.1 132.4,202 164.7,202 		"/>
		<polygon class="st1" points="13.3,201.9 0.2,179.2 0.2,201.9 		"/>
		<polygon class="st1" points="75.8,41.6 92,69.5 108.1,41.6 		"/>
		<polygon class="st1" points="35,173.9 18.9,201.9 51.1,201.9 		"/>
		<path class="st1" d="M32.2,172.3c0,0-28.9,0-32,0v0.5l15.9,27.4L32.2,172.3z"/>
		<polygon class="st1" points="70.1,172.3 37.8,172.3 53.9,200.2 		"/>
		<polygon class="st1" points="132.6,71.3 164.9,71.3 148.7,43.4 		"/>
		<polygon class="st1" points="132.3,135.1 164.5,135.1 148.4,107.2 		"/>
		<polygon class="st1" points="94.8,71.3 127,71.3 110.9,43.4 		"/>
		<path class="st1" d="M32.4,41.6c0,0-30.3,0-32.2,0v0.2l16,27.8L32.4,41.6z"/>
		<polygon class="st1" points="166.8,103.4 166.8,76.2 151.2,103.4 		"/>
		<path class="st1" d="M166.8,172.5c-7.9,0-15.5,0-15.5,0l15.5,26.9V172.5z"/>
		<path class="st1" d="M14.4,5.1l-2.8-4.9H7.1C4,0.2,1.4,2.3,0.5,5.1H14.4z"/>
		<polygon class="st1" points="151,234.3 166.8,234.3 166.8,206.9 		"/>
		<polygon class="st1" points="132.3,73.8 148.4,101.8 164.5,73.8 		"/>
		<path class="st1" d="M133.5,5.3h32.3l-2.4-4.2c-1-0.5-2.1-0.9-3.3-0.9h-23.6L133.5,5.3z"/>
		<path class="st1" d="M166.8,105.6c-7.9,0-15.7,0-15.7,0l15.7,27.1V105.6z"/>
		<path class="st1" d="M166.8,68.3V41.8c-7.8,0-15.3,0-15.3,0L166.8,68.3z"/>
		<path class="st1" d="M150.1,238l2.6,4.5h7.3c2.9,0,5.4-1.9,6.4-4.5C158.3,237.9,150.1,238,150.1,238z"/>
		<polygon class="st1" points="166.8,141.2 151.1,168.5 166.8,168.5 		"/>
		<polygon class="st1" points="113.3,103.4 145.6,103.4 129.5,75.4 		"/>
		<polygon class="st1" points="113.7,41.8 129.8,69.7 145.9,41.8 		"/>
		<polygon class="st1" points="94.4,73.8 110.5,101.8 126.7,73.8 		"/>
		<polygon class="st1" points="129.4,140.6 113.3,168.5 145.5,168.5 		"/>
		<polygon class="st1" points="164.4,138.9 132.2,138.9 148.3,166.9 		"/>
		<polygon class="st1" points="144.5,237.9 112.3,237.9 114.8,242.4 141.9,242.4 		"/>
		<polygon class="st1" points="55,3.5 56.9,0.2 53.1,0.2 		"/>
		<polygon class="st1" points="19.9,5.1 52.2,5.1 49.4,0.2 22.8,0.2 		"/>
		<polygon class="st1" points="17.2,3.5 19,0.2 15.3,0.2 		"/>
		<polygon class="st1" points="57.8,5.1 90,5.1 87.2,0.2 60.6,0.2 		"/>
		<path class="st1" d="M13.1,8.8c0,0-6,0-12.9,0v22.3L13.1,8.8z"/>
		<polygon class="st1" points="130.7,3.7 132.7,0.2 128.7,0.2 		"/>
		<polygon class="st1" points="92.8,3.5 94.7,0.2 90.9,0.2 		"/>
		<polygon class="st1" points="164.4,204.7 132.1,204.7 148.2,232.7 		"/>
		<polygon class="st1" points="95.6,5.3 127.9,5.3 124.9,0.2 98.6,0.2 		"/>
		<polygon class="st1" points="33.8,239.4 32,242.4 35.5,242.4 		"/>
		<polygon class="st1" points="71.6,239.4 69.9,242.4 73.4,242.4 		"/>
		<polygon class="st1" points="109.5,239.6 107.8,242.4 111.1,242.4 		"/>
		<polygon class="st1" points="106.7,237.8 74.4,237.8 77.1,242.4 104,242.4 		"/>
		<path class="st1" d="M13.1,73.8c0,0-6,0-12.8,0V96L13.1,73.8z"/>
		<polygon class="st1" points="147.3,239.6 145.7,242.4 148.9,242.4 		"/>
		<path class="st1" d="M31,237.8c0,0-23.5,0-30.4,0c0.9,2.7,3.5,4.7,6.5,4.7h21.2L31,237.8z"/>
		<polygon class="st1" points="68.8,237.8 36.6,237.8 39.3,242.4 66.1,242.4 		"/>
		<polygon class="st1" points="129.3,206.3 113.2,234.3 145.4,234.3 		"/>
		<polygon class="st1" points="0.2,38.2 0.2,38.4 32.4,38.4 16.3,10.4 		"/>
		<polygon class="st1" points="38,38.4 70.3,38.4 54.1,10.4 		"/>
		<polygon class="st1" points="56.9,8.8 73,36.8 89.2,8.8 		"/>
		<polygon class="st1" points="19.1,8.8 35.2,36.8 51.3,8.8 		"/>
		<polygon class="st1" points="166.8,37.6 166.8,12 152.1,37.6 		"/>
		<polygon class="st1" points="110.9,36.8 127,8.8 94.8,8.8 		"/>
		<polygon class="st1" points="133.2,8 149.3,35.9 165.4,8 		"/>
		<polygon class="st1" points="75.8,38.4 108.1,38.4 92,10.4 		"/>
		<polygon class="st1" points="114.3,37.6 146.5,37.6 130.4,9.6 		"/>
		<polygon class="st1" points="0.2,48.2 0.2,71.1 13.5,71.1 		"/>
		<polygon class="st1" points="53.1,207.1 36.9,235.1 69.2,235.1 		"/>
		<polygon class="st1" points="0.2,103.4 32,103.4 15.9,75.4 0.2,102.5 		"/>
		<polygon class="st1" points="50.3,205.5 18,205.5 34.2,233.5 		"/>
		<polygon class="st1" points="88.1,205.5 55.9,205.5 72,233.5 		"/>
		<polygon class="st1" points="90.9,207.1 74.8,235.1 107,235.1 		"/>
		<polygon class="st1" points="126,205.5 93.7,205.5 109.8,233.5 		"/>
		<path class="st1" d="M13.1,139.6c0,0-6,0-12.8,0v22.2L13.1,139.6z"/>
		<polygon class="st1" points="15.2,207.1 0.2,233.1 0.2,235.1 31.4,235.1 		"/>
		<path class="st1" d="M0.2,205.5V226L12,205.5C12.1,205.5,6.6,205.5,0.2,205.5z"/>
	</g>
</g>
<g id="Layer_2">
	<path class="st2" d="M13.1,139.6c13.2,0,26.4,0,39.7,0c6.4,10.9,12.7,21.8,19.1,32.7c13.2,0,26.3,0,39.5-0.1
		c13-23.1,25.9-46.1,38.9-69.2c-13.1,0-26.1,0-39.2,0c-6.2-10.6-12.4-21.3-18.6-31.9c-13.4,0-26.9,0-40.3,0
		C39.1,94,26.1,116.8,13.1,139.6z"/>
</g>
<g id="Layer_2_1_">
	<path class="st3" d="M37.6,103.6l16.1-27.9l16.1,27.9H37.6L37.6,103.6z M75.4,103.6l16.1-27.9l16.1,27.9H75.4L75.4,103.6z
		 M18.7,136.3l16.1-27.9l16.1,27.9H18.7L18.7,136.3z M94.3,136.3l16.1-27.9l16.1,27.9H94.3L94.3,136.3z M56.5,136.3l16.1-27.9
		l16.1,27.9H56.5L56.5,136.3z M75.4,169.1l16.1-27.9l16.1,27.9H75.4L75.4,169.1z M145.5,106.8l-16.1,27.9l-16.1-27.9L145.5,106.8
		L145.5,106.8z M88.7,74l-16.1,27.9L56.5,74H88.7L88.7,74z M107.7,106.8l-16.1,27.9l-16.1-27.9C75.4,106.8,107.7,106.8,107.7,106.8
		L107.7,106.8z M69.8,106.8l-16.1,27.9l-16.1-27.9C37.6,106.8,69.8,106.8,69.8,106.8L69.8,106.8z M88.7,139.6l-16.1,27.9l-16.1-27.9
		H88.7L88.7,139.6z M126.6,139.6l-16.1,27.9l-16.1-27.9C94.3,139.6,126.6,139.6,126.6,139.6L126.6,139.6z"/>
</g>
</svg>
